<svg width="227" height="40" xmlns="http://www.w3.org/2000/svg"><g fill="#fff" stroke-width="2.787" style="fill:red;fill-opacity:1"><path d="M20.213332 28.343977 1.6484206 20.620843v-4.833081L20.213332 8.0809555v5.7964325L8.9306991 18.22063l11.2826329 4.359571Zm3.771764-22.1080827h6.645487v8.8171087q1.355222-1.404206 2.694117-2.008341 1.338894-.604135 3.167628-.604135 2.710444 0 4.261602 1.649126 1.567486 1.649126 1.567486 5.061673v11.021386h-6.678143v-9.535541q0-1.632798-.604135-2.302244-.604136-.685775-1.69811-.685775-1.208271 0-1.959358.914366-.751087.914367-.751087 3.281924v8.327269h-6.645487zm30.321057 0v6.5965037h3.657468v4.84941h-3.657468v6.155647q0 1.110303.212264 1.469519.32656.555151 1.142959.555151.734759 0 2.057325-.424527l.489839 4.588162q-2.465524.538824-4.60449.538824-2.481853 0-3.657467-.636792-1.175615-.636791-1.747094-1.926701-.555151-1.306238-.555151-4.212619v-6.106664h-2.449197v-4.84941h2.449197V9.6484415Zm6.874079 6.5965037h6.204632v2.530837q1.338894-1.583814 2.694117-2.253261 1.37155-.669447 3.298252-.669447 2.073653 0 3.281923.734759 1.208271.734759 1.975686 2.187949 1.567486-1.69811 2.857396-2.302245 1.28991-.620463 3.183956-.620463 2.792084 0 4.35957 1.665454 1.567486 1.649126 1.567486 5.175969v10.890762h-6.661815v-9.878427q0-1.175615-.457183-1.747094-.669448-.898039-1.665454-.898039-1.175615 0-1.894046.849055-.718431.849055-.718431 2.726773v8.947732h-6.661815v-9.551868q0-1.142958-.130624-1.551158-.212264-.653119-.734759-1.04499-.522496-.4082-1.224599-.4082-1.142958 0-1.877717.865383-.734759.865383-.734759 2.841068v8.849765h-6.661816zm31.888547 0h7.886411l2.75943 4.833082 3.20029-4.833082h7.33126l-5.91073 8.261958 6.33526 9.078356h-7.75579l-3.20029-5.584169-3.771762 5.584169h-7.200639l6.3026-9.078356z" style="fill:#000;fill-opacity:1"/><path fill="#4d93da" d="M121.18171 6.2474225 115.20514 30.17174h4.1373l6.00976-23.9243175Z" font-weight="700" style="fill:#4d93da;fill-opacity:1"/><path d="M126.39418 6.2358943h6.66182V30.172711h-6.66182zm9.73148 19.1363907 6.5965-.620463c.27213.783743.65312 1.344337 1.14296 1.681782.48984.337445 1.14296.506167 1.95936.506167.89259 0 1.58381-.190493 2.07365-.571479.38099-.283019.57148-.636792.57148-1.061319 0-.478954-.25036-.849055-.75109-1.110302-.35921-.185051-1.31168-.413642-2.8574-.685775-2.30769-.402757-3.91327-.772858-4.81675-1.110303-.89259-.34833-1.64912-.930695-2.26959-1.747094-.60958-.816399-.91437-1.747093-.91437-2.792084 0-1.142959.332-2.12808.99601-2.955364.66401-.827285 1.57837-1.442305 2.7431-1.845062 1.16473-.413642 2.72678-.620463 4.68613-.620463 2.06821 0 3.59216.157837 4.57184.473511.99056.315675 1.8124.805514 2.46552 1.469518.66401.664005 1.21372 1.562044 1.64913 2.694117l-6.3026.620463c-.16328-.555151-.43541-.963351-.8164-1.224598-.52249-.348331-1.15384-.522496-1.89405-.522496-.75109 0-1.30079.136067-1.64912.4082-.33745.261247-.50617.582364-.50617.963351 0 .424527.21771.745644.65312.96335.43541.217707 1.38244.413643 2.84107.587808 2.20972.250362 3.8534.598692 4.93105 1.04499 1.07765.446298 1.89949 1.083089 2.46552 1.910374.57692.827284.86538 1.736208.86538 2.726772 0 1.001449-.30479 1.975686-.91436 2.922709-.59869.947023-1.55116 1.703552-2.8574 2.269589-1.29535.555151-3.06422.832727-5.30659.832727-3.16763 0-5.42633-.451741-6.77611-1.355223-1.33889-.903481-2.19883-2.187949-2.57982-3.853403zm21.63457 11.39693V12.832397h6.22096v2.563493c.85994-1.077647 1.64912-1.806963 2.36755-2.187949.96879-.51161 2.041-.767415 3.21662-.767415 2.31857 0 4.1092.887153 5.3719 2.66146 1.27358 1.774307 1.91037 3.967699 1.91037 6.580176 0 2.884609-.69122 5.088886-2.07365 6.612831-1.38243 1.51306-3.12953 2.26959-5.24128 2.26959-1.02322 0-1.95936-.174165-2.80841-.522496-.83817-.34833-1.58926-.865383-2.25326-1.551158v8.278286zm6.66181-15.217677c0 1.37155.28846 2.389327.86538 3.053332.57693.664005 1.30624.996007 2.18795.996007.77286 0 1.42054-.315674 1.94303-.947023.5225-.642234.78375-1.725323.78375-3.249268 0-1.404206-.27213-2.432869-.8164-3.085988-.54427-.664004-1.20827-.996006-1.99202-.996006-.84905 0-1.5566.332002-2.12263.996006-.56604.664005-.84906 1.741651-.84906 3.23294zm35.1665 6.791973 18.56491-7.723134v-4.833081l-18.56491-7.7068069v5.7964329l11.28264 4.343242-11.28264 4.359571z" style="fill:#000;fill-opacity:1"/><text xml:space="preserve" style="font-size:38.042px;font-family:sans-serif;-inkscape-font-specification:Normal;text-align:center;text-anchor:middle;fill:#000;stroke:#28301f;stroke-width:.000000306574;stroke-linejoin:bevel;paint-order:stroke markers fill;fill-opacity:1" x="187.7874" y="32.087399"><tspan x="187.7874" y="32.087399" style="font-style:normal;font-variant:normal;font-weight:400;font-stretch:normal;font-family:&quot;Peter Test&quot;;-inkscape-font-specification:&quot;Peter Test&quot;;text-align:center;text-anchor:middle;stroke-width:.000000306574;fill:#000;fill-opacity:1">2</tspan></text></g></svg>